<svg xmlns="http://www.w3.org/2000/svg" xmlns:xlink="http://www.w3.org/1999/xlink" version="1.1" width="50" height="50" viewBox="0 0 50 50" xml:space="preserve">
<desc>Created with Fabric.js 3.5.0</desc>
<defs>
</defs>
<rect x="0" y="0" width="100%" height="100%" fill="#54be90"/>
<g transform="matrix(0.0875 0 0 0.0875 25 25)" id="329413">
<g style="" vector-effect="non-scaling-stroke">
		<g transform="matrix(0.1333 0 0 -0.1333 0.839 0.0073)">
<path style="stroke: none; stroke-width: 1; stroke-dasharray: none; stroke-linecap: butt; stroke-dashoffset: 0; stroke-linejoin: miter; stroke-miterlimit: 4; is-custom-font: none; font-file-url: none; fill: rgb(0,0,0); fill-rule: nonzero; opacity: 1;" transform=" translate(-1506.4866, -1499.778)" d="M 1362 2163 c -13 -3 -26 -11 -29 -19 c -3 -8 -9 -11 -14 -8 c -5 3 -8 2 -7 -3 c 1 -4 -7 -28 -19 -53 c -11 -25 -37 -79 -57 -121 c -19 -42 -50 -107 -67 -145 c -18 -38 -33 -71 -34 -74 c -2 -8 -87 -183 -148 -307 c -31 -62 -54 -113 -51 -113 c 2 0 -3 -11 -12 -25 c -9 -14 -13 -25 -9 -25 c 5 0 0 -9 -10 -20 c -11 -12 -20 -26 -21 -33 c -1 -7 -27 -64 -57 -127 c -76 -160 -97 -207 -97 -218 c 0 -29 34 -36 173 -33 c 179 2 148 -6 352 92 c 72 35 133 62 138 61 c 4 -1 7 3 7 9 c 0 5 5 7 10 4 c 6 -3 10 -1 10 5 c 0 6 4 9 9 5 c 5 -3 15 1 23 8 c 7 8 21 13 31 11 c 9 -1 15 1 13 5 c -6 9 175 100 194 97 c 3 -1 19 9 37 22 c 17 12 34 22 38 22 c 12 0 67 -129 59 -141 c -4 -8 -3 -9 5 -5 c 7 5 17 -6 27 -31 c 28 -68 75 -157 85 -164 c 6 -3 71 -7 146 -8 c 109 -2 139 1 159 14 c 13 8 24 20 24 25 c 0 13 -110 252 -191 413 c -10 22 -19 40 -19 42 c 0 2 17 9 38 16 c 20 6 50 21 66 32 c 18 13 26 15 21 6 c -7 -11 -4 -11 11 2 c 10 8 31 20 47 27 c 15 6 27 16 27 22 c 0 6 3 9 8 7 c 11 -8 2 296 -10 310 c -12 15 -54 17 -63 4 c -3 -5 -19 -12 -35 -16 c -17 -4 -30 -11 -30 -16 c 0 -6 -4 -8 -9 -4 c -5 3 -12 1 -16 -5 c -4 -6 -11 -8 -16 -5 c -5 4 -9 2 -9 -3 c 0 -5 -26 -21 -57 -36 c -32 -15 -68 -33 -79 -42 c -21 -14 -23 -13 -43 19 c -11 19 -21 41 -21 49 c 0 8 -6 20 -12 27 c -7 6 -13 15 -14 19 c 0 4 -10 29 -22 55 c -12 27 -22 51 -22 55 c 0 3 -8 14 -17 25 c -10 11 -12 17 -5 13 c 8 -5 3 9 -11 30 c -27 43 -42 84 -38 99 c 1 6 -1 7 -5 2 c -4 -4 -20 21 -35 55 c -42 95 -48 98 -198 97 c -69 -1 -136 -4 -149 -6 z m 312 -75 c 13 -29 65 -141 116 -248 c 51 -107 120 -256 155 -330 c 35 -74 116 -245 180 -380 c 64 -135 119 -251 122 -258 c 4 -9 -29 -12 -144 -12 l -150 0 l -54 113 c -30 61 -68 141 -84 178 l -30 65 l -285 -137 c -157 -75 -322 -155 -367 -178 l -83 -41 l -151 0 c -117 0 -150 3 -146 13 c 3 6 94 199 202 427 c 108 228 225 476 260 550 c 34 74 79 170 99 213 l 37 77 l 149 0 l 150 0 l 24 -52 z m 576 -498 l 0 -150 l -81 -39 l -82 -39 l -55 117 c -31 64 -56 120 -57 124 c 0 7 249 134 268 136 c 4 1 7 -67 7 -149 z m -290 -17 c 0 -25 -1 -26 -16 -11 c -9 9 -13 21 -10 27 c 13 20 26 11 26 -16 z m 25 -49 c 1 -19 61 -130 79 -145 c 20 -16 19 -16 -2 -28 c -18 -10 -22 -9 -22 4 c 0 9 -9 34 -20 55 c -11 22 -18 40 -14 40 c 3 0 -2 7 -10 16 c -14 13 -18 28 -15 50 c 0 4 -5 11 -13 16 c -10 8 -10 9 2 5 c 8 -2 15 -8 15 -13 z" stroke-linecap="round"/>
</g>
		<g transform="matrix(0.1333 0 0 -0.1333 -18.022 -0.0572)">
<path style="stroke: none; stroke-width: 1; stroke-dasharray: none; stroke-linecap: butt; stroke-dashoffset: 0; stroke-linejoin: miter; stroke-miterlimit: 4; is-custom-font: none; font-file-url: none; fill: rgb(0,0,0); fill-rule: nonzero; opacity: 1;" transform=" translate(-1364.9106, -1500.275)" d="M 1360 2089 c 6 -19 27 -97 46 -173 c 20 -76 39 -149 44 -162 c 7 -18 -12 -66 -96 -246 c -58 -123 -132 -279 -164 -348 c -31 -69 -74 -159 -94 -199 c -21 -40 -36 -74 -34 -76 c 2 -1 66 93 143 211 c 131 200 142 215 185 233 c 26 11 99 45 162 77 l 116 56 l -60 127 c -33 69 -100 214 -150 321 c -92 197 -116 242 -98 179 z m 119 -273 c 8 -9 8 -21 1 -40 c -13 -35 -17 -33 -22 14 c -4 42 2 49 21 26 z m 59 -141 c 39 -79 92 -193 92 -198 c 0 -2 -35 -21 -77 -41 c -43 -21 -86 -42 -96 -47 c -10 -5 -22 -7 -27 -4 c -5 3 -12 -1 -17 -8 c -4 -7 -25 -21 -45 -30 c -20 -10 -40 -22 -43 -27 c -4 -6 -11 -8 -16 -5 c -5 4 -9 1 -9 -6 c 0 -7 -2 -10 -5 -7 c -5 4 24 71 97 230 c 12 26 26 44 32 41 c 5 -3 6 -1 2 6 c -4 6 6 37 23 68 c 17 31 31 64 31 73 c 0 21 11 33 21 23 c 4 -5 21 -35 37 -68 z m -250 -414 c -29 -37 -47 -46 -41 -20 c 3 11 17 26 32 34 c 35 19 36 19 9 -14 z" stroke-linecap="round"/>
</g>
</g>
</g>
<g transform="matrix(0.002 0 0 -0.002 25.0236 34.6718)" id="143266">
<path style="stroke: none; stroke-width: 1; stroke-dasharray: none; stroke-linecap: butt; stroke-dashoffset: 0; stroke-linejoin: miter; stroke-miterlimit: 4; is-custom-font: none; font-file-url: none; fill: rgb(0,0,0); fill-rule: nonzero; opacity: 1;" vector-effect="non-scaling-stroke" transform=" translate(-5000.0269, -110.0244)" d="M 2755.8 3760.4 c -592.7 -128 -1151.9 -456.8 -1551.6 -913.6 C 637.2 2199 255.2 1220.3 125.2 90.1 c -43.3 -387.9 -29.5 -968.8 31.5 -1250.3 c 78.8 -370.2 252 -803.3 429.2 -1081 c 767.9 -1193.2 2124.6 -1650 3262.7 -1096.7 c 372.1 181.1 760 506 1021.9 854.5 c 63 82.7 122.1 151.6 130 151.6 c 7.9 0 66.9 -68.9 130 -151.6 c 261.9 -348.5 649.8 -673.4 1021.9 -854.5 c 811.2 -393.8 1752.4 -285.5 2520.4 287.5 c 602.5 448.9 1010.1 1108.6 1175.5 1900.1 c 57.1 275.7 68.9 866.4 25.6 1240.5 C 9678.9 1793.3 8970 3022 7887.1 3537.9 c -407.6 193 -671.4 254 -1104.6 254 h -309.1 l -86.6 -63 c -116.2 -82.7 -177.2 -206.7 -147.7 -297.3 c 33.5 -100.4 147.7 -194.9 395.8 -330.8 c 393.8 -212.6 618.3 -376.1 913.6 -663.6 c 490.3 -480.4 789.6 -1039.6 921.5 -1726.8 c 41.3 -212.7 45.3 -291.4 43.3 -777.8 c -2 -567.1 -25.6 -846.7 -108.3 -1250.3 c -198.9 -962.9 -685.2 -1531.9 -1346.8 -1579.2 c -466.7 -31.5 -1037.7 311.1 -1382.3 827 c -114.2 173.3 -163.4 303.2 -163.4 437.1 c 0 137.8 17.7 222.5 169.3 777.8 c 277.6 1012.1 322.9 1504.3 194.9 2077.3 c -135.8 606.5 -293.4 907.7 -537.5 1027.8 c -102.4 51.2 -131.9 55.1 -328.8 55.1 c -183.1 0 -232.3 -7.9 -315 -45.3 c -196.9 -90.6 -334.7 -277.6 -450.9 -612.4 c -265.8 -762 -250.1 -1346.8 59.1 -2453.4 c 238.3 -844.7 240.2 -935.3 21.7 -1264.1 c -321 -482.4 -874.3 -832.9 -1313.3 -832.9 c -275.7 0 -582.8 122.1 -793.5 315 c -368.2 338.7 -584.8 876.2 -695.1 1722.9 c -43.3 330.8 -51.2 1246.4 -11.8 1466.9 c 194.9 1100.7 766 1872.5 1845 2488.8 c 273.7 157.5 338.7 204.8 384 277.6 c 76.8 124 29.5 256 -128 364.3 l -86.6 59.1 l -321 -2 C 3009.8 3789.9 2834.6 3778.1 2755.8 3760.4 z" stroke-linecap="round"/>
</g>
</svg>